<svg id="Layer_1" data-name="Layer 1" xmlns="http://www.w3.org/2000/svg" viewBox="0 0 305.56 75.79"><defs><style>.cls-1{fill:#00c3ff;}.cls-2{fill:#023247;}</style></defs><polygon class="cls-1" points="0 75.02 24.81 75.02 62.02 25.4 37.21 25.4 0 75.02"/><rect class="cls-1" x="62.02" y="0.6" width="21.55" height="74.42"/><path class="cls-2" d="M112.25,8.53a19.93,19.93,0,0,0-5.06-.63,5.17,5.17,0,0,0-2.25.37,1.28,1.28,0,0,0-.73,1.22,1.64,1.64,0,0,0,1,1.41,17.88,17.88,0,0,0,3.63,1.32c3.53,1,6.08,2.18,7.67,3.59a7.52,7.52,0,0,1,2.37,5.9,7.6,7.6,0,0,1-3.38,6.81,15,15,0,0,1-8.38,2.22,30.34,30.34,0,0,1-6.43-.63,18,18,0,0,1-4.87-1.72l.46-8.27a34,34,0,0,0,5,2,18.76,18.76,0,0,0,5.75.95c2.44,0,3.66-.58,3.66-1.72a1.78,1.78,0,0,0-1.14-1.54,20.82,20.82,0,0,0-3.82-1.36q-5.16-1.26-7.41-3.45a7.86,7.86,0,0,1-2.25-5.92,7.94,7.94,0,0,1,3.09-6.74Q102.24,0,107.53,0a20.63,20.63,0,0,1,9.41,1.89l-.55,8.27A16.47,16.47,0,0,0,112.25,8.53Z"/><path class="cls-2" d="M147.64.67v29.4h-8V19h-9.37v11h-8V.67h8V11.84h9.37V.67Z"/><path class="cls-2" d="M160.28.67v29.4h-8V.67Z"/><path class="cls-2" d="M164.94.67h20.79V8.15H172.92v5.37h9.75v6.72h-9.75v9.83h-8Z"/><path class="cls-2" d="M196.27,7.85h-7.68V.67h23.47V7.85h-7.81V30.07h-8Z"/><path class="cls-2" d="M101.9,45.67h14.91l7.27,29.4h-8.45l-1.21-5.58H104.34l-1.22,5.58h-8.4Zm11.26,17.77-3.7-17.14h-.13l-3.69,17.14Z"/><path class="cls-2" d="M135,66.06a6.47,6.47,0,0,0,5.1,2,12.77,12.77,0,0,0,3.78-.63,17.26,17.26,0,0,0,3.82-1.72l.5,8.23a18.71,18.71,0,0,1-3.8,1.32,17.12,17.12,0,0,1-4,.49A17.38,17.38,0,0,1,132.06,74a12.35,12.35,0,0,1-5.27-5.29,17.57,17.57,0,0,1-1.83-8.3,17.33,17.33,0,0,1,1.83-8.23,12.35,12.35,0,0,1,5.27-5.27,18.68,18.68,0,0,1,12.32-1.34,16.1,16.1,0,0,1,3.8,1.36l-.5,8.19a17,17,0,0,0-3.84-1.72,12.8,12.8,0,0,0-3.76-.63,6.52,6.52,0,0,0-5.1,2,8.08,8.08,0,0,0-1.83,5.63A8.19,8.19,0,0,0,135,66.06Z"/><path class="cls-2" d="M157.3,45.67h14.91l7.26,29.4H171l-1.22-5.58H159.73l-1.21,5.58h-8.4Zm11.25,17.77L164.86,46.3h-.13L161,63.44Z"/><path class="cls-2" d="M202.07,47.44a12,12,0,0,1,5,5.08,16.68,16.68,0,0,1,1.74,7.85,16.72,16.72,0,0,1-1.74,7.86,12,12,0,0,1-5,5.08,16.21,16.21,0,0,1-7.77,1.76H182.25V45.67H194.3A16.1,16.1,0,0,1,202.07,47.44Zm-7.9,20.45a5.9,5.9,0,0,0,4.75-2,8.16,8.16,0,0,0,1.72-5.5,8.18,8.18,0,0,0-1.72-5.5,5.93,5.93,0,0,0-4.75-2h-3.94v15Z"/><path class="cls-2" d="M234,45.67v7.18H220.63v4.41h9.83v6.22h-9.83v4.41h13.78v7.18H212.65V45.67Z"/><path class="cls-2" d="M245.92,49.24h-.21V75.07h-8l0-29.4h14l3.44,28.77h.21l3.44-28.77H273l0,29.4h-8l0-25.83h-.22l-3.48,25.83H249.36Z"/><path class="cls-2" d="M290.23,64.45H283l-7.31-18.78h8.91l5.92,17.6h.12l6-17.6h8.91l-11.3,29.4h-7.69Z"/></svg>