<svg width="23" height="22" viewBox="0 0 23 22" fill="none" xmlns="http://www.w3.org/2000/svg">
<path d="M11.4378 0C14.3812 0 14.7485 0.0108333 15.9033 0.0649999C17.0571 0.119167 17.8425 0.300083 18.5337 0.56875C19.2487 0.843917 19.851 1.21658 20.4533 1.81783C21.0042 2.35939 21.4304 3.01447 21.7024 3.7375C21.97 4.42758 22.152 5.21408 22.2062 6.36783C22.2571 7.52267 22.2712 7.88992 22.2712 10.8333C22.2712 13.7768 22.2603 14.144 22.2062 15.2988C22.152 16.4526 21.97 17.238 21.7024 17.9292C21.4312 18.6526 21.0049 19.3078 20.4533 19.8488C19.9116 20.3995 19.2566 20.8257 18.5337 21.0979C17.8436 21.3655 17.0571 21.5475 15.9033 21.6017C14.7485 21.6526 14.3812 21.6667 11.4378 21.6667C8.49441 21.6667 8.12716 21.6558 6.97233 21.6017C5.81858 21.5475 5.03316 21.3655 4.34199 21.0979C3.61868 20.8265 2.96348 20.4002 2.42233 19.8488C1.87135 19.3074 1.44508 18.6523 1.17324 17.9292C0.904576 17.2391 0.723659 16.4526 0.669492 15.2988C0.618575 14.144 0.604492 13.7768 0.604492 10.8333C0.604492 7.88992 0.615325 7.52267 0.669492 6.36783C0.723659 5.213 0.904576 4.42867 1.17324 3.7375C1.44433 3.01403 1.8707 2.35876 2.42233 1.81783C2.96364 1.26667 3.61879 0.840373 4.34199 0.56875C5.03316 0.300083 5.81749 0.119167 6.97233 0.0649999C8.12716 0.0140833 8.49441 0 11.4378 0ZM11.4378 5.41667C10.0012 5.41667 8.62349 5.98735 7.60766 7.00317C6.59184 8.01899 6.02116 9.39674 6.02116 10.8333C6.02116 12.2699 6.59184 13.6477 7.60766 14.6635C8.62349 15.6793 10.0012 16.25 11.4378 16.25C12.8744 16.25 14.2522 15.6793 15.268 14.6635C16.2838 13.6477 16.8545 12.2699 16.8545 10.8333C16.8545 9.39674 16.2838 8.01899 15.268 7.00317C14.2522 5.98735 12.8744 5.41667 11.4378 5.41667ZM18.4795 5.14583C18.4795 4.78669 18.3368 4.44225 18.0829 4.18829C17.8289 3.93434 17.4845 3.79167 17.1253 3.79167C16.7662 3.79167 16.4217 3.93434 16.1678 4.18829C15.9138 4.44225 15.7712 4.78669 15.7712 5.14583C15.7712 5.50498 15.9138 5.84942 16.1678 6.10337C16.4217 6.35733 16.7662 6.5 17.1253 6.5C17.4845 6.5 17.8289 6.35733 18.0829 6.10337C18.3368 5.84942 18.4795 5.50498 18.4795 5.14583ZM11.4378 7.58333C12.2998 7.58333 13.1264 7.92574 13.7359 8.53524C14.3454 9.14473 14.6878 9.97138 14.6878 10.8333C14.6878 11.6953 14.3454 12.5219 13.7359 13.1314C13.1264 13.7409 12.2998 14.0833 11.4378 14.0833C10.5759 14.0833 9.74922 13.7409 9.13973 13.1314C8.53024 12.5219 8.18783 11.6953 8.18783 10.8333C8.18783 9.97138 8.53024 9.14473 9.13973 8.53524C9.74922 7.92574 10.5759 7.58333 11.4378 7.58333Z" fill="white"/>
</svg>
