<svg width="24" height="20" viewBox="0 0 24 20" fill="none" xmlns="http://www.w3.org/2000/svg">
<path d="M1.44318 8.61532L15.7704 2.72441C17.1523 2.14259 21.9523 0.178957 21.9523 0.178957C21.9523 0.178957 24.1341 -0.69377 23.9886 1.41532C23.9159 2.28805 23.4068 5.26986 22.9704 8.54259L21.3704 18.1426C21.3704 18.1426 21.225 19.5244 20.2068 19.8153C19.1886 20.0335 17.4432 18.9426 17.1523 18.7244C16.9341 18.5062 12.5704 15.8153 10.9704 14.4335C10.5341 14.0699 10.025 13.3426 11.0432 12.4699C13.225 10.4335 15.9159 7.96077 17.5159 6.36077C18.2432 5.6335 18.9704 3.88805 15.9159 5.99714L7.26136 11.8153C7.26136 11.8153 6.3159 12.3971 4.42499 11.888C2.60681 11.3062 0.424995 10.579 0.424995 10.579C0.424995 10.579 -1.02955 9.56077 1.44318 8.61532Z" fill="#31FFCF"/>
</svg>
