<svg width="25" height="18" viewBox="0 0 25 18" fill="none" xmlns="http://www.w3.org/2000/svg">
<path fill-rule="evenodd" clip-rule="evenodd" d="M16.9956 8.50909L10.5229 12V6.61818V5.01818L13.432 6.61818L16.9956 8.50909ZM24.7774 3.78182C24.7774 3.78182 24.5592 2.03636 23.832 1.30909C22.8865 0.290909 21.8683 0.290909 21.432 0.218182C18.0138 0 12.9956 0 12.9956 0C12.9956 0 7.97742 0 4.63197 0.218182C4.19561 0.290909 3.17742 0.290909 2.23197 1.30909C1.5047 2.03636 1.28651 3.78182 1.28651 3.78182C1.28651 3.78182 0.995605 5.81818 0.995605 7.85455V8.07273V9.74545C0.995605 11.7818 1.21379 13.8182 1.21379 13.8182C1.21379 13.8182 1.43197 15.5636 2.15924 16.2909C3.1047 17.3091 4.26833 17.2364 4.85015 17.3818C6.74106 17.6 12.9956 17.6 12.9956 17.6C12.9956 17.6 18.0138 17.6 21.3592 17.3091C21.7956 17.2364 22.8865 17.2364 23.7592 16.2182C24.4865 15.4909 24.7047 13.7455 24.7047 13.7455C24.7047 13.7455 24.9229 11.7091 24.9229 9.67273V8.14545V7.78182C24.9956 5.81818 24.7774 3.78182 24.7774 3.78182Z" fill="white"/>
</svg>
